<svg xmlns="http://www.w3.org/2000/svg" width="160pt" height="50pt" viewBox="0 0 1875 583"><g fill="#00a8e8"><path d="M56.33 0h17.66c7.83 1.88 15.88 3.7 22.68 8.26 13.11 7.35 23.22 19.63 28.1 33.83 5.9 16.55 4.59 35.48-3.49 51.08-5.09 9.15-11.89 17.6-20.76 23.33-10.48 6.78-22.87 11.38-35.53 10.12 3.19.57 6.44.49 9.65.85-1.86.49-3.8.27-5.68.04-4.96-.65-9.96-.01-14.93.11 3.35-.22 6.69-.55 10.01-1.02-6.13.33-12.39.06-18.25-1.93-8.25-2.89-16.37-6.71-22.9-12.63C11.43 101.77 2.95 87.61 1.45 72.11c-.39-6.29-.46-12.64.2-18.92C3.2 42.65 7.68 32.61 14.18 24.2 24.39 11.05 39.83 2.21 56.33 0M1669.42 21.59c13.13-2.2 26.37 8.26 27.67 21.44q16.35 94.425 32.73 188.85c.84 4.7 1.89 9.55.8 14.31-1.89 9.63-10.01 17.7-19.73 19.27-215.59 37.35-431.16 74.76-646.74 112.1-12.64 2.63-26.09-6.85-28.09-19.56-11.39-65.69-22.79-131.37-34.15-197.05-2.05-12.55 7.68-25.37 20.19-27.17 215.78-37.37 431.54-74.83 647.32-112.19m-52.43 61.27c-1.85.44-4.89.49-4.67 3.15.08 2.46.35 5.1 1.76 7.2 4.65.92 9.41-.83 14.12-.89 5.67 33.14 11.53 66.26 17.17 99.42-4.1.98-8.27 1.7-12.23 3.1-1.59.57-1.76 2.59-1.47 4 .33 2.12.5 5.42 3.36 5.54 11.39-1.67 22.7-3.95 34.08-5.76 2.04-.41 5.23-.72 5.1-3.52-.23-2.41-.19-6.26-3.24-6.8-4.14-.01-8.24.74-12.34 1.08-6.13-35.16-12.18-70.34-18.31-105.51-.25-2.5-2.62-4.79-5.23-4.1-6.04.99-12.06 2.1-18.1 3.09m-52.96 9.23c-1.79.41-4.77.55-4.7 3.01.32 2.64-.03 7.5 3.64 7.73 4.1-.25 8.13-1.08 12.24-1.39 5.69 33.14 11.47 66.27 17.21 99.41-4.09 1.07-8.29 1.78-12.24 3.24-2.78 1.52-1.29 5.22-.71 7.59.34 2.12 2.74 1.96 4.37 1.64q17.01-2.97 34.05-5.91c4.97-.27 3.78-7.53 1.01-9.81-4.43-.37-8.85.7-13.26.9-6.12-35.02-12.15-70.06-18.25-105.09-.26-2.25-1.83-4.58-4.32-4.49-6.4.64-12.68 2.21-19.04 3.17m-61.11 49.79c-3.75 2.08-7.3 4.89-9.29 8.76-2.91 5.32-2.37 12.07.5 17.28 2.07 3.85 6.85 5.56 11.02 4.68 3.29-.54 7.17-2.04 8.09-5.63.65-3.4.08-7.33-2.19-10.03-1.87-2.09-4.85-1.41-7.28-1.28.63-1.26 1.17-2.64 2.41-3.46 4.56-3.48 10.33-4.85 15.93-5.57 5.38-.51 11.32.02 15.67 3.57 3.93 3.14 4.83 9.35 1.78 13.41-4.27 5.53-11.05 8.06-17.29 10.64-7.49 2.87-15.19 6.19-20.7 12.23-3.91 4.14-5.77 9.99-5.25 15.63.55 8.16 4.45 16.74 12.03 20.59 8.45 4.49 18.67 3.1 27.36-.01 7.42-2.55 13.66-8.02 17.44-14.87 1.72 3.14 3.99 6.31 7.67 7.27 3.73.91 8.03 1.11 11.55-.71 2.17-2.39.72-5.86-.15-8.5-1.11-3.52-5.93-1.67-7.57-4.61-2.13-3.01-2.8-6.73-3.52-10.26-1.99-10.97-3.95-21.94-5.9-32.91-.85-5.18-2.1-10.58-5.57-14.68-4.45-5.51-11.85-7.54-18.66-7.58-9.63-.08-19.53 1.42-28.08 6.04m-76.85 17.26c-2.94 2.6-4.85 6.08-6.8 9.43-.5-2.87-.87-5.75-1.58-8.57-.45-2.08-2.82-3.53-4.86-2.8-5.62.93-11.23 1.96-16.84 2.89-1.73.34-4.34.54-4.4 2.85.39 2.6.04 6.32 2.64 7.82 4.3.1 8.51-1.24 12.83-1.39 5.34 31.3 10.84 62.58 16.22 93.88-3.71 1.12-7.5 1.92-11.17 3.09-1.13.31-2.35 1.29-2.11 2.59.18 2.37.14 5.3 2.13 6.97 1.78.23 3.58-.22 5.37-.48 10.5-1.89 21.03-3.56 31.53-5.47 1.46-.17 3.29-1.16 3.07-2.92-.17-2.4-.07-6.27-3.04-6.95-4.25-.22-8.43.86-12.67.76-1.65-10.87-3.76-21.67-5.51-32.52 4.32 4.08 9.15 8.08 15.14 9.31 6.23 1.7 12.73.08 18.63-2.09 7.22-2.74 13.18-8.65 15.69-15.99 3.56-10.31 2.68-21.5.95-32.08-1.89-9.77-4.55-19.94-11.13-27.69-4.86-5.92-12.56-9.22-20.18-8.98-8.53.18-17.45 2.52-23.91 8.34m-128.17-5.46c-10.17 2.04-20.54 3.26-30.6 5.71-1.78 2.59-.81 6.35.74 8.85 4.6.89 9.31-.44 13.95-.62 3.97 22.91 7.97 45.81 11.89 68.73-19.72-23.03-39.1-46.35-58.72-69.46-1.1-1.7-3.25-1.79-5.01-1.41-6.36 1.09-12.72 2.18-19.06 3.3-1.71.18-4.07 1.03-3.66 3.2.37 2.5.08 6.05 2.59 7.46 3.43.02 6.81-.76 10.24-1 4.8 28.13 9.74 56.24 14.59 84.37-3.12.94-6.34 1.57-9.36 2.81-1.76.73-1.56 2.99-1.23 4.51.38 2.06.79 5.28 3.68 4.83 11.02-1.79 22.02-3.81 33.02-5.76 4.71-.38 3.23-7.04 1.02-9.39-4.53-1.02-9.21.57-13.79.66-3.92-23.98-8.49-47.85-12.24-71.85 20.37 23.78 40.4 47.85 60.64 71.74 2.86 3.57 7.74 1.16 11.47.67 2.9-.28 3.71-3.66 2.98-6.04-5.23-29.83-10.22-59.71-15.6-89.51 2.91-1.18 6.05-1.79 8.91-3.13 1.56-2.16.57-5.16-.13-7.48-1.09-2.55-4.25-1.41-6.32-1.19m34.06 21.3c-6.05 6.39-7.68 15.55-7.81 24.04.02 9.91 1.48 19.82 4.32 29.32 2.93 9.22 8.67 18.3 17.78 22.39 9.29 4.44 20.08 3.54 29.75.94 7.93-2.39 15.98-7.43 18.72-15.66 1.21-3.92 2.26-8.74-.36-12.33-2.3-2.73-6.25-1.42-9.09-.41-2.74 1.61-1.92 5.25-2.87 7.84-1.96 5.39-7.67 8.02-12.87 9.3-5.92 1.23-12.57 1.26-17.8-2.15-6.76-4.23-10.03-12.11-11.64-19.61 15.98-2.74 31.93-5.71 47.89-8.59 3.57-.2 6.82-3.56 5.73-7.25-2.37-10.49-5.21-21.5-12.46-29.79-5.94-6.74-15.39-9.4-24.13-8.33-9.06.93-18.7 3.46-25.16 10.29m-239.42 14.36c-11.4 2.15-22.92 3.7-34.25 6.11-3 2.11-1.3 7.65.78 9.98 4.51.08 8.94-1.16 13.45-1.31 4.56 28.18 9.95 56.23 14.38 84.42-4.29 1.19-8.99 1.47-12.92 3.6-1.2 2.95-.62 9.86 4.04 8.85 11.7-1.98 23.38-4.11 35.08-6.12 1.48-.16 3.18-1.05 3.08-2.79-.2-2.43-.06-6.34-3.09-7-4.29-.2-8.51.92-12.79.87-4.67-28.09-9.74-56.12-14.5-84.2 4.4-1.46 9.53-1.2 13.44-3.84.81-2.48.06-5.22-.74-7.6-1.18-2.27-4.01-1.15-5.96-.97m56.72 13.92c-3.67 2.72-5.47 7.01-7.65 10.85-.69-2.53-1.06-5.18-2.3-7.51-1.38-2.08-4.12-1.4-6.15-1.04-6.04 1.25-12.19 1.97-18.18 3.42-2.49.32-2.2 3.35-1.83 5.15.39 1.76.51 4.65 2.85 4.89 4.18-.06 8.3-1.03 12.44-1.57 2.25 11.65 4.1 23.38 6.17 35.07 1.34 9.02 3.57 17.95 4.35 27.04-3.33.74-6.66 1.48-9.94 2.37-4.99.51-3.84 7.73-.97 10.01 4.39.04 8.65-1.34 13-1.91 8.15-1.55 16.42-2.59 24.5-4.48 1.81-2.65.96-7.5-1.71-9.37-3.75-.03-7.47.66-11.19.96-1.56-7.47-2.66-15.04-4.02-22.55-1.78-10-3.61-20.38-1.41-30.46 1.17-5.59 5.15-10.64 10.8-12.14 5.72-1.52 13.03-2.2 17.55 2.46 4.4 4.98 5.68 11.79 7.1 18.08 2.43 12.53 4.55 25.13 6.78 37.69-3.27 2.17-8.04 1.59-11.42 3.83-1.03 1.9-.23 4.09.11 6.05.25 1.37.95 3.43 2.79 2.97 10.43-1.5 20.77-3.63 31.18-5.33 1.61-.43 4.26-.49 4.33-2.73-.1-2.47 0-5.92-2.54-7.23-3.71-.46-7.43.5-11.14.54-1.92-11.48-3.92-22.95-5.95-34.41-1.85-9.25-3.85-18.76-8.89-26.87-3.4-5.53-9.49-9.3-16.03-9.44-7.8-.22-16.24.81-22.63 5.66M0 152.93c1.77-2.07 4.64-1.18 7-1.34 38.2.05 76.39.01 114.59.02 3.74 3.48 2.28 8.88 2.48 13.4-.06 136.33 0 272.65-.01 408.98.12 3 .01 6.02-.43 9.01H0zM303.69 153.89c-.37-2.61 2.57-2.36 4.26-2.31 40.38.2 80.77-.25 121.15.23.1 3.14 1.69 5.99 1.7 9.13.01 136.34-.05 272.67-.03 409.03.17 4.35.83 8.82-.68 13.03H309.1c-.9-.17-2.68-.5-3.58-.67-.32-2.85-1.71-5.46-1.86-8.32.06-140.04-.02-280.08.03-420.12M609.45 152.06c2.38-.93 5.05-.51 7.56-.62 41.71.18 83.44-.34 125.15.28.24.28.74.84.99 1.12.26 32.04.03 64.1.11 96.14.01 111.17-.02 222.34.01 333.5-3.27.19-6.54.27-9.8.52H612.74c-1.35-1.83-3.59-3.46-3.43-5.96-.03-92.01 0-184.01-.01-276.02.1-49.65-.2-99.32.15-148.96M751.69 151.59c29.11-.06 58.21-.01 87.32-.03 16.57-.09 33.38-.22 49.5 4.16 30.87 7 58.73 26.01 76.99 51.81 16.94 24.23 26.24 53.91 25.41 83.5-.22 11.64.71 23.41-1.27 34.93-3.13 22.76-11.91 44.69-25.2 63.42-18.92 26.35-48.07 45.22-79.98 51.3-21.54 4.49-43.65 2.84-65.49 3.16-20.99.01-41.97-.03-62.96.02-1.51-.15-3.22.34-4.57-.46-.63-7.12-.7-14.25-.2-21.38-.94-6.31.74-12.66-.42-18.98.6-7.67.56-15.39.11-23.06.45-3.66.37-7.34-.05-11 .94-8.81-.21-17.68.43-26.47 18.22.05 36.43.01 54.65.02 11.02-.22 22.77-1.92 31.59-9.09 8.21-7.38 12.59-18.39 12.92-29.32.96-4 .89-8.1-.06-12.09.1-12.51-6.3-24.97-16.95-31.68-8.69-4.7-18.73-6.12-28.5-5.97-17.82.05-35.65-.11-53.47.09-.97-14.48-.1-28.9-.25-43.42-.41-10.03.34-20.08-.15-30.11-.86-4 .67-8-.14-11.99-.69-3.65.76-7.3-.03-10.94-.46-2.19 0-4.37.77-6.42"/><path d="M1443.07 164.23c5.92-.84 12.64.21 16.83 4.84 5.51 6.11 7 14.58 8.46 22.4 1.16 8.29 2.44 17.45-1.69 25.16-3.41 6.36-10.93 8.79-17.68 9.4-5.6.56-11.1-2.24-14.58-6.52-5.44-6.47-7.63-14.92-9.08-23.06-1.44-8.19-1.19-17.32 3.54-24.45 3.14-4.73 8.65-7.29 14.2-7.77M132.26 165.84c2.08.27 3.18 2.12 4.48 3.53 51.48 60.19 102.65 120.47 154.11 180.72 1.83 2.45 5.05 4.52 4.74 7.95v156.97c-.11 17.25.22 34.51-.17 51.76-4.32-2.3-6.34-7.06-9.89-10.23-50.84-59.08-102.05-117.91-152.96-176.97-.61-2.11-.22-4.37-.31-6.54.01-69.06.02-138.13 0-207.19M439.24 168.85c2.17.13 3.37 1.89 4.49 3.51 49 57.65 98.06 115.3 147.26 172.73 3.29 4.37 7.4 8.06 10.41 12.65-.16 70.25.05 140.51-.11 210.76-1.78-.14-2.59-1.85-3.68-2.98a154369 154369 0 0 0-153.14-177.09c-1.94-2.62-5.51-4.77-5.24-8.42.01-70.38 0-140.77.01-211.16M1513.55 190.47c8.99-8.02 23.1-7.72 31.04-17.32.77 6.31 2.2 12.53 2.88 18.85.62 7.98-4.5 15.55-11.57 18.92-5.04 2.41-10.8 4.22-16.38 2.76-9.51-2.4-13.68-16.64-5.97-23.21M1340.67 186.64c3.55-6.01 10.74-8.54 17.38-9.05 4.5-.39 9.47.29 12.85 3.57 5.38 4.97 6.86 12.5 8.57 19.3-13.64 2.58-27.36 4.72-40.99 7.32-1.29-6.99-1.33-14.75 2.19-21.14M1812.51 253.64c9.24-1.57 19.15 2.86 24.19 10.75 2.61 3.68 3.59 8.16 4.28 12.54 11.11 64.38 22.35 128.75 33.43 193.14 1.99 12.31-7.07 25.05-19.33 27.25-127.32 22.09-254.66 44.15-381.99 66.2-12.68 2.76-26.31-6.66-28.34-19.45-10.77-62.03-21.5-124.07-32.26-186.1-.72-5.34-2.4-10.6-2.07-16.03.71-10.6 9.13-20.06 19.56-22.03 127.51-22.09 255.02-44.19 382.53-66.27m-52.4 98.3c-7.58 2.91-11.66 10.72-13.38 18.22-2.37-4.9-5.89-9.61-11.12-11.63-6.55-2.38-13.84-1.28-20.27.91-6.2 2.31-10.2 7.98-12.75 13.82-1.19-3.06-.96-8.87-5.53-8.63-6.73.95-13.4 2.31-20.09 3.48-1.53.17-3.66.98-3.32 2.9.26 2.56.03 6.23 2.55 7.69 4.38.34 8.72-1.05 13.1-1.4 3.52 20.52 7.17 41.01 10.59 61.55-4.4 1.54-9.26 1.66-13.36 3.96.1 2.9-.39 6.42 1.79 8.71 3.53.64 7.07-.8 10.59-1.16 9.45-1.88 19.09-2.94 28.44-5.28.02-3.15.47-7.23-2.27-9.41-3.88-.08-7.71.63-11.54.94-1.9-11.23-4.04-22.42-5.7-33.69-.78-7.73-1.43-16 1.82-23.28 3.32-8.01 15.01-11.36 21.89-6.06 4.98 4.71 6.15 11.84 7.79 18.19 2.65 12.97 4.74 26.06 6.95 39.12-3.91.84-7.76 1.89-11.58 3.04-.25 3.3-.93 10.42 4.23 9.48 9.72-1.56 19.4-3.38 29.12-5 1.38-.32 3.74-.47 3.77-2.41-.03-2.66.02-5.82-2.04-7.81-3.3-.43-6.62.12-9.89.33-1.81-10.31-3.66-20.61-5.36-30.94-1.13-8.5-2.14-17.56 1.19-25.71 2.78-7.45 12.22-10.57 19.39-8.1 6.18 2.9 7.93 10.25 9.57 16.27 3.31 14.03 5.11 28.36 8.06 42.47-3.59 1.29-7.41 1.79-10.94 3.2-1.96 1.53-.89 4.29-.63 6.33.33 1.4.85 3.82 2.83 3.42 10.35-1.33 20.61-3.49 30.93-5.15 1.85-.41 5-.61 4.95-3.21.03-2.27-.38-4.57-1.35-6.61-3.81-1.8-8.25.08-12.3-.2-3.22-16.39-5-33.09-9.52-49.18-2.52-7.74-5.96-16.42-13.76-20.16-7.33-2.96-15.65-1.67-22.85.99m-132.9 22.4c-7.05.95-14.2 2.65-20.22 6.61-6.75 4.02-10.97 11.36-12.39 18.95-2.21 11.32-.35 22.95 2.3 34.03 2.15 7.97 5.03 16.19 11.06 22.11 6.29 6.68 16.05 8.95 24.95 8.21 9.53-.81 19.56-2.92 27.09-9.2 5.93-4.89 9.04-12.46 9.76-19.98 1.16-12.19-.88-24.51-4.55-36.13-2.65-8.33-7.34-16.5-14.99-21.13-6.95-3.96-15.24-4.36-23.01-3.47m-105.11 25.75c-7.5 9.14-8.08 21.74-6.87 32.99 1.2 10.11 3.38 20.39 8.5 29.32 3.94 6.89 10.49 12.5 18.32 14.34 7.54 1.73 15.5 1.15 22.95-.78 8.88-2.59 17.39-8.78 20.2-17.92 1.28-4.99 2.13-10.81-.88-15.36-2.97-1.38-6.4-1.1-9.29.3-2.97 2.04-1.41 6.01-2.32 8.95-1.94 7.79-9.93 12.74-17.67 12.81-6.1.62-12.71-1.08-16.8-5.88-5.59-6.67-7.46-15.48-8.84-23.85-1.16-7.59-2.13-15.95 1.62-23 3.56-6.51 11.11-9.19 17.97-10.6 5.88-1.16 13.02-.43 17.17 4.36-2.93 1-6 2.93-6.42 6.29-.71 4.96.2 11.49 5.3 13.83 4.51 1.27 9.75.65 13.58-2.21 3.16-2.55 4.39-6.82 4.11-10.75-.8-8.12-4.6-16.52-11.99-20.61-6.75-4.12-15-4.13-22.64-3.62-9.52.88-19.51 4.02-26 11.39m-29.87 61.24c-3.9 1-8.74 3.17-9.3 7.67-.6 4.94.23 10.15 2.39 14.64 2.67 4.22 8.37 4.17 12.72 3.19 4.85-.91 10.63-4.09 10.7-9.69.17-4.89-.76-10.11-3.66-14.15-3.73-2.54-8.59-2.18-12.85-1.66"/><path d="M1627.42 387.52c6.33-1.03 13.46.12 18.07 4.92 6.42 6.68 8.33 16.15 9.97 24.94 1.12 8.09 1.8 17.11-2.68 24.36-4.05 6.25-11.74 8.91-18.87 9.33-6.63.91-13.68-1.88-17.56-7.38-5.41-7.45-7-16.82-8.29-25.73-.66-7.44-.85-15.76 3.82-22.05 3.53-5.06 9.65-7.44 15.54-8.39"/></g></svg>