<svg xmlns="http://www.w3.org/2000/svg" width="54pt" height="32pt" viewBox="0 0 958 563"><g fill="#00a8e8"><path d="M54.55 0h15.81c14.22 1.87 27.61 8.82 37.45 19.21 11.22 12.29 17.43 29.1 16.28 45.76-.78 18.65-11.06 36.3-26.16 47.04-8.56 5.6-18.3 10-28.65 10.51-10.5.65-21.46.25-31.08-4.45-13.76-5.6-24.82-16.78-31.34-30.01C.99 76.53.17 63.16 1.81 50.51c1.85-11.15 7.1-21.63 14.47-30.16C26.08 9.28 39.91 2 54.55 0M293.47 146.61c40.3-.09 80.62-.26 120.93.09.79 3.4 1.98 6.75 1.99 10.27.01 130.36.01 260.71 0 391.07 0 4.99.39 10.03-.68 14.96H299.57c-1.54-.19-3.07-.39-4.6-.6-.68-3.43-1.6-6.84-1.55-10.36.06-135.14-.03-270.29.05-405.43M588.41 146.59c13.5-.61 27.03-.14 40.55-.29 29.62.15 59.24-.34 88.86.33.05 138.65.04 277.3.01 415.95-3.26.12-6.5.22-9.75.42H591.56c-1.39-2.13-3.43-4.19-3.18-6.94.03-136.48-.02-272.98.03-409.47M725.34 146.76c15.87-.7 31.79-.11 47.69-.3 18.21.07 36.42-.15 54.63.11 17.79.11 35.58 3.76 51.94 10.75 17.49 7.97 33.62 19.37 45.99 34.17 10.62 12.49 18.83 27 24.18 42.5 5.79 17 8.07 35.05 7.85 52.96.28 17.26-1.83 34.65-7.04 51.14-9.2 29.02-28.46 55.06-54.53 71.02-18.86 11.84-40.93 18.17-63.11 19.19-9.63.82-19.29.42-28.93.51-26.09.01-52.17-.04-78.25.02-.58-4.26-.44-8.56-.4-12.85-.01-28.43.02-56.86-.02-85.29 16.89.05 33.77-.01 50.66.03 11.2-.04 23.29-1.19 32.43-8.32 8.29-6.98 12.42-17.81 13.04-28.43.88-4.64.38-9.32-.19-13.95-.58-10.99-6.15-21.78-15.33-27.99-8.02-4.99-17.69-6.3-26.96-6.37-17.88-.06-35.75.06-53.63-.05-.02-32.95.03-65.9-.02-98.85M.63 146.53c39.18-.01 78.37-.03 117.56.01 1.01 2.01 1.96 4.12 1.83 6.42-.08 120.67-.01 241.35-.04 362.02-.15 16 .31 32.02-.22 48.02H.69C.51 424.18.64 285.35.63 146.53M127.78 159.35c3.01 2.24 5.4 5.13 7.72 8.05 48.69 56.99 97.17 114.15 145.89 171.11 1.82 2.19 4.48 4.33 4.23 7.49-.07 67.2.15 134.41-.12 201.61-.94-.72-1.89-1.4-2.74-2.21-24.6-28.5-49.21-57-73.81-85.51-27.25-31.12-54.04-62.63-81.31-93.73.1-68.94-.18-137.88.14-206.81M424.32 162.38c2.01 1.42 3.79 3.14 5.26 5.12 50.29 59.33 100.97 118.33 151.29 177.63v169.91c-.09 11.51.19 23.03-.15 34.53-7.46-7.35-13.81-15.75-20.81-23.53-44.84-51.82-89.64-103.69-134.48-155.5-1.53-1.45-1.18-3.67-1.26-5.56.15-67.54-.15-135.07.15-202.6"/></g></svg>